PathFileType	4	(X/Y/Z)	C:\Users\WrightLab\Desktop\Jo\P2_Trial13.trc
DataRate	CameraRate	NumFrames	NumMarkers	Units	OrigDataRate	OrigDataStartFrame	OrigNumFrames
100.00	100.00	       19	19	mm	100.00	71	       567
Frame#	Time	Headset_Front			Headset_Back			Headset_Left			Headset_Right			Left_Shoulder			Right_Shoulder			Sternum			C7			Left Elbow			Right Elbow			Left Wrist			Right Wrist			Left ASIS			Right ASIS			S2			Left Knee			Right Knee			Left Ankle			Right Ankle			
		X1	Y1	Z1	X2	Y2	Z2	X3	Y3	Z3	X4	Y4	Z4	X5	Y5	Z5	X6	Y6	Z6	X7	Y7	Z7	X8	Y8	Z8	X9	Y9	Z9	X10	Y10	Z10	X11	Y11	Z11	X12	Y12	Z12	X13	Y13	Z13	X14	Y14	Z14	X15	Y15	Z15	X16	Y16	Z16	X17	Y17	Z17	X18	Y18	Z18	X19	Y19	Z19	

71	0.700																									-274.64456	1058.10364	-1289.00830							-833.94427	843.40350	-1232.47192	-518.41504	1005.28241	-1191.90625							-445.54236	448.80807	-1115.28394										
72	0.710																									-278.96719	1056.89819	-1282.63306							-837.23071	844.66724	-1220.36816	-522.92950	1004.99951	-1185.79919							-455.03021	449.86905	-1106.49731										
73	0.720																									-283.14688	1055.35693	-1277.29419							-841.49634	845.91559	-1206.62488	-528.12805	1004.21350	-1178.51196							-461.92142	450.40961	-1097.88171										
74	0.730																									-286.94370	1053.59253	-1273.09949							-845.65588	847.12604	-1193.08569	-532.73938	1002.59796	-1170.33289							-469.95996	449.38339	-1091.10791										
75	0.740																									-290.94363	1052.31128	-1266.92981							-849.96863	849.14667	-1180.36938	-537.06836	1001.50604	-1165.93848							-477.79150	447.99850	-1083.17688										
76	0.750																									-295.26062	1050.84424	-1259.82397							-854.33453	849.78320	-1165.11743	-540.34314	1000.38617	-1157.66174							-485.08408	445.42178	-1075.86377										
77	0.760																			-575.68256	1285.80334	-1189.30859				-297.86267	1048.86145	-1254.25586							-858.21924	852.16504	-1152.83276	-545.21198	998.06036	-1149.39783							-491.32523	443.75500	-1071.78674										
78	0.770																			-580.14441	1284.08093	-1182.23975				-301.90878	1047.67822	-1248.03992							-861.90881	853.01086	-1138.45642	-549.57184	998.10217	-1141.41443							-497.47382	440.60013	-1067.63757										
79	0.780																			-584.84601	1282.35315	-1174.48474				-306.40442	1045.80554	-1239.89136							-865.82983	855.66913	-1126.50879	-554.67285	997.04242	-1132.97681							-504.07104	437.80930	-1062.67236										
80	0.790																			-588.59686	1281.01868	-1167.08594				-308.56711	1044.69751	-1235.27136							-870.50806	855.86542	-1110.50574	-559.61298	995.14044	-1127.27246							-509.82532	433.88254	-1056.96326										
81	0.800																			-593.90967	1280.50317	-1159.52527				-312.00049	1042.81152	-1226.86780				-284.45441	798.09943	-1238.94971	-874.85730	858.91229	-1100.05493	-564.55408	994.13110	-1115.96057							-516.20801	430.91129	-1053.44226										
82	0.810																			-596.47601	1278.87195	-1151.10120				-315.16003	1041.11108	-1219.30981				-289.08691	797.12646	-1230.68640	-879.26801	860.64044	-1087.61682	-569.41510	991.56958	-1109.57776							-522.84052	429.11264	-1050.60962				-576.05884	64.63430	-1043.75061				
83	0.820																-754.22449	1393.79553	-1220.00146	-601.07941	1278.20093	-1143.88977				-317.40878	1040.14465	-1214.03003				-289.88165	795.65082	-1228.40137	-883.05182	862.00977	-1075.13696	-573.24933	991.37256	-1101.24475							-530.35181	426.09283	-1046.71960				-586.02667	60.41885	-1023.52563				
84	0.830																-757.86652	1393.44495	-1213.73096	-604.11139	1276.15869	-1135.18542				-321.93811	1037.91772	-1204.54199				-294.35297	794.89801	-1219.38013	-886.89905	863.07404	-1062.95508	-579.21570	990.23938	-1093.59912							-539.46753	425.60596	-1040.75623				-595.95685	60.04794	-1002.80786				
85	0.840																-762.15753	1392.21069	-1209.48999	-608.59058	1274.85181	-1126.77869				-325.16833	1037.43420	-1196.06384				-295.99847	792.59698	-1213.62695	-890.65851	864.35870	-1051.51917	-584.13702	988.16040	-1085.42090							-547.90363	423.24091	-1035.57849				-605.60876	61.96470	-980.46686				
86	0.850																-764.72235	1391.66882	-1200.58972	-613.46875	1273.78979	-1117.17432				-328.33771	1035.72083	-1189.00696	-865.29584	1075.16296	-1193.44031	-299.17654	792.60510	-1207.07568	-894.77582	865.66254	-1040.73499	-587.74878	987.55548	-1076.39575							-556.27374	422.64011	-1027.90308				-618.19586	64.82854	-957.68976				
87	0.860													-440.33185	1390.44714	-1145.93018	-768.01263	1390.69080	-1192.27771	-616.55383	1272.97937	-1108.55737				-332.22943	1033.72229	-1180.35120	-869.22534	1074.44348	-1183.36670	-300.91632	790.79279	-1200.77478	-898.93268	866.20660	-1029.43359	-592.81195	985.84125	-1067.69751							-563.36975	421.65631	-1022.90271				-627.34766	69.55875	-937.24658				
88	0.870													-443.75784	1388.70154	-1134.84216	-771.30957	1389.63318	-1183.91797	-620.16290	1272.43445	-1100.04431				-335.96545	1032.98596	-1170.41699	-872.92657	1073.91443	-1173.70227	-304.21631	791.44781	-1193.49194	-902.58228	867.14423	-1018.41699	-597.53943	983.71088	-1058.94666							-571.35083	420.79568	-1015.52325				-636.48883	75.02637	-916.74292				
89	0.880													-447.13461	1387.42603	-1124.66797	-774.88434	1389.13562	-1174.39355	-625.04272	1270.91736	-1090.26978				-341.31250	1032.20435	-1156.41125	-876.28516	1074.22412	-1165.91211	-308.90109	788.49005	-1182.36975	-906.53229	867.55994	-1008.63629	-600.81720	983.37891	-1048.22607	-719.70898	967.65869	-1103.07080				-578.64825	419.66147	-1009.46521				-648.85223	79.12682	-895.83325				
